<?xml version="1.0" encoding="iso-8859-1"?>
<!-- Generator: Adobe Illustrator 17.1.0, SVG Export Plug-In . SVG Version: 6.00 Build 0)  -->
<!DOCTYPE svg PUBLIC "-//W3C//DTD SVG 1.1//EN" "http://www.w3.org/Graphics/SVG/1.1/DTD/svg11.dtd">
<svg version="1.1" id="Capa_1" xmlns="http://www.w3.org/2000/svg" xmlns:xlink="http://www.w3.org/1999/xlink" x="0px" y="0px"
	 viewBox="0 0 99.045 99.045" style="enable-background:new 0 0 99.045 99.045;" xml:space="preserve">
<g>
	<path d="M61.679,28.709c5.975,0,10.835-4.861,10.835-10.836S67.654,7.038,61.679,7.038c-5.975,0-10.836,4.861-10.836,10.836
		S55.704,28.709,61.679,28.709z"/>
	<path d="M73.78,32.246c-0.475,0-0.943,0.032-1.408,0.071c-0.147-0.171-0.311-0.326-0.492-0.461
		c-8.671,0.95-15.441,8.313-15.441,17.233c0,9.33,7.412,16.942,16.654,17.307v-0.5c0.23,0.009,0.456,0.035,0.688,0.035
		c9.302,0,16.843-7.54,16.843-16.842C90.623,39.787,83.083,32.246,73.78,32.246z"/>
	<path d="M54.439,49.089c0-8.017,4.903-14.909,11.868-17.838H54.811L32.43,15.241c-0.507-0.363-1.104-0.555-1.726-0.555
		c-0.495,0-0.972,0.125-1.396,0.351l-2.204-1.825l1.063-1.284c0.705-0.851,0.585-2.112-0.265-2.816
		c-0.851-0.705-2.111-0.584-2.816,0.265l-1.063,1.284L11.698,0.46c-0.851-0.705-2.112-0.586-2.816,0.265
		C8.177,1.576,8.296,2.837,9.147,3.541l12.325,10.202l-1.063,1.284c-0.705,0.851-0.585,2.112,0.265,2.816
		c0.373,0.309,0.825,0.459,1.274,0.459c0.575,0,1.146-0.247,1.542-0.725l1.063-1.285l2.244,1.857
		c-0.68,1.315-0.319,2.975,0.914,3.857l22.552,16.133v26.235v0.503v29.166c0,2.757,2.243,5,5,5h0.351c2.757,0,5-2.243,5-5V67.879
		h2.127v26.166c0,2.757,2.243,5,5,5h0.352c2.757,0,5-2.243,5-5V68.396C62.747,68.03,54.439,59.522,54.439,49.089z"/>
</g>
<g>
</g>
<g>
</g>
<g>
</g>
<g>
</g>
<g>
</g>
<g>
</g>
<g>
</g>
<g>
</g>
<g>
</g>
<g>
</g>
<g>
</g>
<g>
</g>
<g>
</g>
<g>
</g>
<g>
</g>
</svg>
