<svg height="512pt" viewBox="-31 0 512 512" width="512pt" xmlns="http://www.w3.org/2000/svg"><path d="m119.617188 270.09375c18.789062 6.84375 38.636718.332031 50.15625-13.667969l-79.789063-29.035156c-.160156 18.082031 10.796875 35.835937 29.632813 42.703125zm0 0"/><path d="m330.382812 270.09375c18.816407-6.859375 29.792969-24.609375 29.632813-42.703125l-79.789063 29.035156c11.40625 13.863281 31.242188 20.574219 50.15625 13.667969zm0 0"/><path d="m30 391c0 33.089844 26.910156 60 60 60v61h45v-91h30v91h45v-91h30v91h45v-91h30v91h45v-61c33.089844 0 60-26.910156 60-60 0-12.65625-4.070312-24.871094-11.46875-35.011719 27.171875-38.171875 41.46875-82.847656 41.46875-129.988281 0-124.070312-100.929688-226-225-226s-225 101.929688-225 226c0 47.140625 14.296875 91.816406 41.46875 129.988281-7.398438 10.140625-11.46875 22.355469-11.46875 35.011719zm242.519531-6.679688-30-45 24.960938-16.640624 30 45zm107.8125-196.246093 5.128907 14.09375c14.167968 38.871093-5.796876 81.921875-44.824219 96.105469-38.867188 14.160156-81.910157-5.761719-96.125-44.824219l-5.140625-14.089844zm-202.851562 196.246093-24.960938-16.640624 30-45 24.960938 16.640624zm-112.941407-182.152343 5.128907-14.09375 140.960937 51.285156-5.140625 14.089844c-14.203125 39.023437-57.222656 58.996093-96.125 44.824219-38.882812-14.128907-59.042969-57.089844-44.824219-96.105469zm0 0"/></svg>