<svg id="Capa_1" enable-background="new 0 0 512 512" height="512" viewBox="0 0 512 512" width="512" xmlns="http://www.w3.org/2000/svg"><path d="m448 218.603c0-105.877-86.123-192-192-192s-192 86.123-192 192c0 28.117 6.229 56.213 18.069 81.6-9.323 30.976-2.091 64.405 19.52 88.597 17.643 19.797 42.965 31.125 69.483 31.125h5.12v32.341c0 18.24 14.848 33.088 33.088 33.088h93.461c18.24 0 33.088-14.848 33.088-33.088v-32.341h3.627c27.456 0 53.696-11.755 71.979-32.235 22.229-24.917 29.781-59.371 20.352-91.307 10.752-24.639 16.213-50.794 16.213-77.78z" fill="#bdbdbd"/><path d="m330.667 353.003c-23.829 0-43.2-19.371-43.2-43.2s19.371-43.2 43.2-43.2 43.2 19.371 43.2 43.2-19.371 43.2-43.2 43.2z" fill="#616161"/><path d="m181.333 352.533c-23.829 0-43.2-19.371-43.2-43.2s19.371-43.2 43.2-43.2 43.2 19.371 43.2 43.2-19.37 43.2-43.2 43.2z" fill="#616161"/><path d="m79.872 319.765c-5.845 0-11.499-3.2-14.315-8.789-14.976-29.717-22.891-63.104-22.891-96.512.001-117.632 95.702-213.333 213.334-213.333s213.333 95.701 213.333 213.333c0 31.893-6.848 62.763-20.395 91.733-3.755 7.979-13.227 11.499-21.269 7.723-8-3.755-11.456-13.269-7.723-21.269 11.541-24.704 17.387-51.008 17.387-78.187 0-99.989-81.344-181.333-181.333-181.333s-181.333 81.344-181.333 181.333c0 28.437 6.72 56.832 19.477 82.112 3.989 7.893.789 17.515-7.083 21.504-2.304 1.152-4.778 1.685-7.189 1.685z"/><path d="m307.947 510.869h-103.894c-20.267 0-36.779-16.491-36.779-36.779v-35.947h-5.653c-29.461 0-57.6-12.608-77.205-34.581-32.96-36.885-35.115-92.245-5.12-131.605l14.507-19.051c18.304-24.021 20.075-56.299 4.544-82.197-4.565-7.552-2.091-17.365 5.483-21.909 7.616-4.544 17.408-2.069 21.952 5.504 22.315 37.205 19.755 83.541-6.549 118.037l-14.507 19.029c-20.715 27.179-19.221 65.429 3.541 90.944 13.547 15.168 32.981 23.872 53.333 23.872h21.675c8.832 0 16 7.168 16 16v51.947c0 2.624 2.155 4.779 4.779 4.779h103.872c2.624 0 4.779-2.155 4.779-4.779v-51.947c0-8.832 7.168-16 16-16h20.011c21.419 0 41.856-9.152 56.107-25.109 22.805-25.536 25.451-63.296 6.485-91.797l-12.949-19.371c-22.336-33.557-26.752-75.904-11.797-113.323 3.285-8.192 12.629-12.245 20.8-8.917 8.213 3.264 12.203 12.587 8.917 20.8-11.051 27.627-7.787 58.923 8.704 83.669l12.949 19.371c27.072 40.661 23.275 94.464-9.237 130.88-20.309 22.741-49.451 35.797-79.979 35.797h-4.011v35.947c-.001 20.246-16.492 36.736-36.758 36.736z"/><path d="m330.667 363.136c-29.419 0-53.333-23.915-53.333-53.333 0-29.419 23.915-53.333 53.333-53.333 29.419 0 53.333 23.915 53.333 53.333s-23.915 53.333-53.333 53.333zm0-74.667c-11.776 0-21.333 9.557-21.333 21.333s9.557 21.333 21.333 21.333 21.333-9.556 21.333-21.332-9.557-21.334-21.333-21.334z"/><path d="m181.333 362.667c-29.419 0-53.333-23.915-53.333-53.333s23.915-53.334 53.333-53.334 53.333 23.915 53.333 53.333-23.914 53.334-53.333 53.334zm0-74.667c-11.776 0-21.333 9.557-21.333 21.333s9.557 21.333 21.333 21.333 21.333-9.557 21.333-21.333-9.557-21.333-21.333-21.333z"/><path d="m256 426.667c-29.696 0-32-20.416-32-26.667 0-14.891 11.008-42.667 32-42.667s32 27.776 32 42.667c0 6.251-2.304 26.667-32 26.667z"/></svg>